<svg width="387" height="136" viewBox="0 0 387 136" fill="none" xmlns="http://www.w3.org/2000/svg">
<path d="M16.272 45.896C12.9867 45.896 10 45.3413 7.312 44.232C4.624 43.08 2.42667 41.4373 0.72 39.304L7.632 31.112C10.0213 34.2267 12.6027 35.784 15.376 35.784C17.2107 35.784 18.5973 35.2293 19.536 34.12C20.5173 33.0107 21.008 31.3893 21.008 29.256V9.992H5.52V0.199997H33.552V28.488C33.552 34.2907 32.08 38.6427 29.136 41.544C26.2347 44.4453 21.9467 45.896 16.272 45.896ZM58.937 45.576C55.225 45.576 51.8757 44.808 48.889 43.272C45.9023 41.736 43.5557 39.6027 41.849 36.872C40.185 34.1413 39.353 31.048 39.353 27.592C39.353 24.1787 40.185 21.1067 41.849 18.376C43.5557 15.6453 45.881 13.5333 48.825 12.04C51.8117 10.504 55.1823 9.736 58.937 9.736C62.6917 9.736 66.0623 10.504 69.049 12.04C72.0357 13.5333 74.361 15.6453 76.025 18.376C77.689 21.064 78.521 24.136 78.521 27.592C78.521 31.048 77.689 34.1413 76.025 36.872C74.361 39.6027 72.0357 41.736 69.049 43.272C66.0623 44.808 62.6917 45.576 58.937 45.576ZM58.937 35.912C61.0703 35.912 62.8197 35.1867 64.185 33.736C65.5503 32.2427 66.233 30.1947 66.233 27.592C66.233 25.032 65.5503 23.0267 64.185 21.576C62.8197 20.1253 61.0703 19.4 58.937 19.4C56.8037 19.4 55.0543 20.1253 53.689 21.576C52.3237 23.0267 51.641 25.032 51.641 27.592C51.641 30.1947 52.3237 32.2427 53.689 33.736C55.0543 35.1867 56.8037 35.912 58.937 35.912ZM119.61 27.72C119.61 27.8053 119.546 28.808 119.418 30.728H94.202C94.714 32.52 95.6953 33.9067 97.146 34.888C98.6393 35.8267 100.495 36.296 102.714 36.296C104.378 36.296 105.807 36.0613 107.002 35.592C108.239 35.1227 109.477 34.3547 110.714 33.288L117.114 39.944C113.743 43.6987 108.815 45.576 102.33 45.576C98.2767 45.576 94.714 44.808 91.642 43.272C88.57 41.736 86.1807 39.6027 84.474 36.872C82.81 34.1413 81.978 31.048 81.978 27.592C81.978 24.1787 82.7887 21.128 84.41 18.44C86.074 15.7093 88.3567 13.576 91.258 12.04C94.1593 10.504 97.4233 9.736 101.05 9.736C104.506 9.736 107.642 10.4613 110.458 11.912C113.274 13.32 115.493 15.3893 117.114 18.12C118.778 20.808 119.61 24.008 119.61 27.72ZM101.114 18.376C99.2367 18.376 97.658 18.9093 96.378 19.976C95.1407 21.0427 94.3513 22.4933 94.01 24.328H108.218C107.877 22.4933 107.066 21.0427 105.786 19.976C104.549 18.9093 102.991 18.376 101.114 18.376ZM161.136 10.312L146.16 46.408C144.41 50.6747 142.277 53.6613 139.76 55.368C137.242 57.1173 134.17 57.992 130.544 57.992C128.709 57.992 126.853 57.6933 124.976 57.096C123.141 56.5413 121.648 55.7947 120.495 54.856L124.72 46.344C125.402 46.984 126.213 47.4747 127.152 47.816C128.133 48.2 129.114 48.392 130.095 48.392C131.248 48.392 132.186 48.1573 132.912 47.688C133.68 47.2187 134.32 46.472 134.832 45.448L119.983 10.312H132.464L140.976 31.496L149.552 10.312H161.136ZM22.224 123.896C18.5973 123.896 15.0773 123.448 11.664 122.552C8.25067 121.656 5.47733 120.461 3.344 118.968L7.504 109.624C9.50933 110.947 11.8347 112.013 14.48 112.824C17.1253 113.635 19.728 114.04 22.288 114.04C27.152 114.04 29.584 112.824 29.584 110.392C29.584 109.112 28.88 108.173 27.472 107.576C26.1067 106.936 23.888 106.275 20.816 105.592C17.4453 104.867 14.6293 104.099 12.368 103.288C10.1067 102.435 8.16533 101.091 6.544 99.256C4.92267 97.4213 4.112 94.9467 4.112 91.832C4.112 89.1013 4.85867 86.648 6.352 84.472C7.84533 82.2533 10.064 80.504 13.008 79.224C15.9947 77.944 19.6427 77.304 23.952 77.304C26.896 77.304 29.7973 77.6453 32.656 78.328C35.5147 78.968 38.032 79.928 40.208 81.208L36.304 90.616C32.0373 88.312 27.8987 87.16 23.888 87.16C21.3707 87.16 19.536 87.544 18.384 88.312C17.232 89.0373 16.656 89.9973 16.656 91.192C16.656 92.3867 17.3387 93.2827 18.704 93.88C20.0693 94.4773 22.2667 95.096 25.296 95.736C28.7093 96.4613 31.5253 97.2507 33.744 98.104C36.0053 98.9147 37.9467 100.237 39.568 102.072C41.232 103.864 42.064 106.317 42.064 109.432C42.064 112.12 41.3173 114.552 39.824 116.728C38.3307 118.904 36.0907 120.653 33.104 121.976C30.1173 123.256 26.4907 123.896 22.224 123.896ZM71.2775 121.592C70.2535 122.232 68.9948 122.723 67.5015 123.064C66.0508 123.405 64.4935 123.576 62.8295 123.576C58.3068 123.576 54.8295 122.467 52.3975 120.248C49.9655 118.029 48.7495 114.723 48.7495 110.328V98.68H43.6935V89.592H48.7495V80.568H60.9095V89.592H68.8455V98.68H60.9095V110.2C60.9095 111.437 61.2295 112.419 61.8695 113.144C62.5522 113.827 63.4482 114.168 64.5575 114.168C65.9655 114.168 67.2028 113.805 68.2695 113.08L71.2775 121.592ZM110.423 105.72C110.423 105.805 110.359 106.808 110.231 108.728H85.0145C85.5265 110.52 86.5078 111.907 87.9585 112.888C89.4518 113.827 91.3078 114.296 93.5265 114.296C95.1905 114.296 96.6198 114.061 97.8145 113.592C99.0518 113.123 100.289 112.355 101.527 111.288L107.927 117.944C104.556 121.699 99.6278 123.576 93.1425 123.576C89.0892 123.576 85.5265 122.808 82.4545 121.272C79.3825 119.736 76.9932 117.603 75.2865 114.872C73.6225 112.141 72.7905 109.048 72.7905 105.592C72.7905 102.179 73.6012 99.128 75.2225 96.44C76.8865 93.7093 79.1692 91.576 82.0705 90.04C84.9718 88.504 88.2358 87.736 91.8625 87.736C95.3185 87.736 98.4545 88.4613 101.271 89.912C104.087 91.32 106.305 93.3893 107.927 96.12C109.591 98.808 110.423 102.008 110.423 105.72ZM91.9265 96.376C90.0492 96.376 88.4705 96.9093 87.1905 97.976C85.9532 99.0427 85.1638 100.493 84.8225 102.328H99.0305C98.6892 100.493 97.8785 99.0427 96.5985 97.976C95.3612 96.9093 93.8038 96.376 91.9265 96.376ZM116.029 88.312H128.189V123H116.029V88.312ZM122.109 84.472C119.89 84.472 118.098 83.8533 116.733 82.616C115.368 81.3787 114.685 79.8427 114.685 78.008C114.685 76.1733 115.368 74.6373 116.733 73.4C118.098 72.1627 119.89 71.544 122.109 71.544C124.328 71.544 126.12 72.1413 127.485 73.336C128.85 74.488 129.533 75.9813 129.533 77.816C129.533 79.736 128.85 81.336 127.485 82.616C126.12 83.8533 124.328 84.472 122.109 84.472ZM173.404 88.312V116.664C173.404 123.107 171.654 127.928 168.156 131.128C164.657 134.371 159.622 135.992 153.052 135.992C149.638 135.992 146.438 135.608 143.452 134.84C140.465 134.072 137.926 132.941 135.836 131.448L140.252 122.936C141.66 124.088 143.43 124.984 145.564 125.624C147.74 126.307 149.873 126.648 151.964 126.648C155.164 126.648 157.51 125.944 159.004 124.536C160.497 123.128 161.244 121.037 161.244 118.264V117.112C158.897 119.843 155.462 121.208 150.94 121.208C147.868 121.208 145.03 120.525 142.428 119.16C139.825 117.752 137.756 115.789 136.22 113.272C134.684 110.712 133.916 107.768 133.916 104.44C133.916 101.155 134.684 98.2533 136.22 95.736C137.756 93.176 139.825 91.2133 142.428 89.848C145.03 88.44 147.868 87.736 150.94 87.736C155.889 87.736 159.516 89.336 161.82 92.536V88.312H173.404ZM153.82 111.544C155.996 111.544 157.788 110.883 159.196 109.56C160.646 108.237 161.372 106.531 161.372 104.44C161.372 102.349 160.668 100.664 159.26 99.384C157.852 98.0613 156.038 97.4 153.82 97.4C151.601 97.4 149.766 98.0613 148.316 99.384C146.908 100.664 146.204 102.349 146.204 104.44C146.204 106.531 146.929 108.237 148.38 109.56C149.83 110.883 151.644 111.544 153.82 111.544ZM216.673 105.72C216.673 105.805 216.609 106.808 216.481 108.728H191.265C191.777 110.52 192.758 111.907 194.208 112.888C195.702 113.827 197.558 114.296 199.777 114.296C201.441 114.296 202.87 114.061 204.065 113.592C205.302 113.123 206.539 112.355 207.777 111.288L214.177 117.944C210.806 121.699 205.878 123.576 199.393 123.576C195.339 123.576 191.777 122.808 188.705 121.272C185.633 119.736 183.243 117.603 181.536 114.872C179.873 112.141 179.041 109.048 179.041 105.592C179.041 102.179 179.851 99.128 181.473 96.44C183.137 93.7093 185.419 91.576 188.321 90.04C191.222 88.504 194.486 87.736 198.113 87.736C201.569 87.736 204.705 88.4613 207.521 89.912C210.337 91.32 212.555 93.3893 214.177 96.12C215.841 98.808 216.673 102.008 216.673 105.72ZM198.177 96.376C196.299 96.376 194.721 96.9093 193.441 97.976C192.203 99.0427 191.414 100.493 191.073 102.328H205.281C204.939 100.493 204.129 99.0427 202.849 97.976C201.611 96.9093 200.054 96.376 198.177 96.376ZM222.279 75.512H234.439V123H222.279V75.512ZM287.526 87.736C291.792 87.736 295.184 89.016 297.702 91.576C300.262 94.136 301.542 97.9973 301.542 103.16V123H289.382V105.144C289.382 102.712 288.912 100.92 287.974 99.768C287.078 98.616 285.798 98.04 284.134 98.04C282.299 98.04 280.827 98.68 279.718 99.96C278.608 101.24 278.054 103.181 278.054 105.784V123H265.894V105.144C265.894 100.408 264.144 98.04 260.646 98.04C258.768 98.04 257.275 98.68 256.166 99.96C255.056 101.24 254.502 103.181 254.502 105.784V123H242.342V88.312H253.926V91.96C255.206 90.552 256.72 89.5067 258.47 88.824C260.262 88.0987 262.203 87.736 264.294 87.736C266.726 87.736 268.902 88.184 270.822 89.08C272.742 89.976 274.299 91.3413 275.494 93.176C276.859 91.4267 278.587 90.0827 280.678 89.144C282.768 88.2053 285.051 87.736 287.526 87.736ZM324.001 87.736C329.761 87.736 334.155 89.0587 337.185 91.704C340.214 94.3067 341.729 98.3173 341.729 103.736V123H330.401V118.52C328.651 121.891 325.238 123.576 320.161 123.576C317.473 123.576 315.147 123.107 313.185 122.168C311.222 121.229 309.729 119.971 308.705 118.392C307.723 116.771 307.233 114.936 307.233 112.888C307.233 109.603 308.491 107.064 311.009 105.272C313.526 103.437 317.409 102.52 322.657 102.52H329.569C329.355 98.8507 326.902 97.016 322.208 97.016C320.545 97.016 318.859 97.2933 317.153 97.848C315.446 98.36 313.995 99.0853 312.801 100.024L308.705 91.768C310.625 90.488 312.95 89.5067 315.681 88.824C318.454 88.0987 321.227 87.736 324.001 87.736ZM323.553 115.896C324.961 115.896 326.198 115.555 327.265 114.872C328.331 114.189 329.099 113.187 329.569 111.864V108.856H324.321C320.779 108.856 319.009 110.029 319.009 112.376C319.009 113.443 319.414 114.296 320.225 114.936C321.035 115.576 322.145 115.896 323.553 115.896ZM371.996 87.736C376.305 87.736 379.761 89.016 382.364 91.576C385.009 94.136 386.332 97.9973 386.332 103.16V123H374.172V105.144C374.172 100.408 372.273 98.04 368.476 98.04C366.385 98.04 364.7 98.7227 363.42 100.088C362.183 101.453 361.564 103.501 361.564 106.232V123H349.404V88.312H360.988V92.088C362.353 90.68 363.975 89.6133 365.852 88.888C367.729 88.12 369.777 87.736 371.996 87.736Z" fill="black"/>
</svg>
